<?xml version="1.0" encoding="UTF-8" standalone="no"?>
<!-- Created with Inkscape (http://www.inkscape.org/) -->

<svg
   xmlns:dc="http://purl.org/dc/elements/1.1/"
   xmlns:cc="http://creativecommons.org/ns#"
   xmlns:rdf="http://www.w3.org/1999/02/22-rdf-syntax-ns#"
   xmlns:svg="http://www.w3.org/2000/svg"
   xmlns="http://www.w3.org/2000/svg"
   xmlns:sodipodi="http://sodipodi.sourceforge.net/DTD/sodipodi-0.dtd"
   xmlns:inkscape="http://www.inkscape.org/namespaces/inkscape"
   width="710.01599"
   height="710.01599"
   id="svg3019"
   version="1.1"
   inkscape:version="0.91 r13725"
   sodipodi:docname="logo-round.svg"
   inkscape:export-filename="/home/orion/leviathan/chats-geeks/logo-round.png"
   inkscape:export-xdpi="32.450001"
   inkscape:export-ydpi="32.450001">
  <defs
     id="defs3021" />
  <sodipodi:namedview
     id="base"
     pagecolor="#ffffff"
     bordercolor="#666666"
     borderopacity="1.0"
     inkscape:pageopacity="0.0"
     inkscape:pageshadow="2"
     inkscape:zoom="0.7"
     inkscape:cx="22.53791"
     inkscape:cy="471.832"
     inkscape:document-units="px"
     inkscape:current-layer="layer1"
     showgrid="false"
     fit-margin-top="0"
     fit-margin-left="0"
     fit-margin-right="0"
     fit-margin-bottom="0"
     inkscape:window-width="1920"
     inkscape:window-height="1016"
     inkscape:window-x="1440"
     inkscape:window-y="27"
     inkscape:window-maximized="1"
     inkscape:snap-page="true"
     inkscape:snap-center="false"
     inkscape:snap-smooth-nodes="true"
     inkscape:object-nodes="true" />
  <metadata
     id="metadata3024">
    <rdf:RDF>
      <cc:Work
         rdf:about="">
        <dc:format>image/svg+xml</dc:format>
        <dc:type
           rdf:resource="http://purl.org/dc/dcmitype/StillImage" />
        <dc:title></dc:title>
      </cc:Work>
    </rdf:RDF>
  </metadata>
  <g
     inkscape:label="Calque 1"
     inkscape:groupmode="layer"
     id="layer1"
     transform="translate(-205.39185,-373.18207)">
    <circle
       style="color:#000000;clip-rule:nonzero;display:inline;overflow:visible;visibility:visible;opacity:1;isolation:auto;mix-blend-mode:normal;color-interpolation:sRGB;color-interpolation-filters:linearRGB;solid-color:#000000;solid-opacity:1;fill:#ffffff;fill-opacity:1;fill-rule:nonzero;stroke:none;stroke-width:1px;stroke-linecap:butt;stroke-linejoin:miter;stroke-miterlimit:4;stroke-dasharray:none;stroke-dashoffset:0;stroke-opacity:1;marker:none;color-rendering:auto;image-rendering:auto;shape-rendering:auto;text-rendering:auto;enable-background:accumulate"
       id="path3337"
       cx="560.39984"
       cy="728.19006"
       r="355.008" />
    <g
       transform="translate(191.74343,-46.168936)"
       id="g3081">
      <path
         sodipodi:nodetypes="ssssscssscscsccsscscsccsscscsccscsssccsssscssscscssssscsssssccsccssscscccccsssssccsssssccssssccsssscscscssssccsccssscccsccsscc"
         inkscape:connector-curvature="0"
         id="path3801-6"
         d="m 373.24265,654.71568 c -21.55406,-1.5588 -42.90903,-0.25729 -61.28164,3.6931 -30.36168,6.52822 -61.48267,17.92362 -83.04316,37.92466 -24.01754,22.28038 -45.65384,55.84269 -57.60938,83.3075 -5.57291,12.80232 -8.68067,26.07169 -12.29942,38.83861 -5.00178,17.6462 -9.12998,38.47757 -19.2218,52.33553 10.52222,11.58655 20.5543,25.11905 30.81547,34.86269 20.92603,19.87059 49.63501,26.92089 72.82548,40.00765 33.46867,18.88691 65.39508,40.08481 100.06773,52.73661 27.45315,10.01737 63.48089,12.54967 87.87468,-2.5588 11.20634,-2.9332 22.41882,-6.8369 32.23764,-10.9397 39.65074,-16.5679 70.93493,-47.29361 94.67024,-81.46132 -6.62419,-3.28048 -12.9599,-4.94364 -20.44438,-6.51021 -14.09856,-2.95097 -34.12359,-5.43347 -49.93959,-3.10478 l -0.25382,-1.73902 c 8.10086,-1.19275 17.18149,-1.15228 26.01622,-0.44593 8.83475,0.70638 17.42985,2.0715 24.54471,3.56071 7.62407,1.59579 14.18628,3.32552 21.08306,6.77768 0.79505,-1.15819 1.58752,-2.31687 2.36538,-3.48216 6.7987,-10.1851 12.04766,-19.87823 18.13883,-30.33138 -11.2402,-2.17204 -21.00859,-2.81018 -32.40239,-1.99086 -20.98209,1.50881 -43.59767,7.5056 -63.72975,18.0379 l -0.81607,-1.56162 c 20.36719,-10.6553 43.19731,-16.69779 64.42073,-18.22394 5.76562,-0.4146 11.14364,-0.47028 16.49639,-0.13519 5.29002,0.33115 10.55537,1.05053 16.16209,2.12695 -5.74274,-8.54942 -11.55909,-17.77384 -14.53872,-26.21313 -0.10235,-0.28986 -0.21543,-0.59334 -0.31797,-0.88383 -16.21505,-0.29626 -33.30938,3.38308 -50.03594,10.13556 -16.2019,6.54064 -34.30036,14.98077 -47.96247,28.11306 l -1.20454,-1.26139 c 13.94808,-13.40717 32.23578,-21.90856 48.50196,-28.47515 16.68906,-6.73735 33.78917,-10.45459 50.10007,-10.25883 -6.28045,-17.79513 -12.89278,-36.57284 -18.71334,-53.25922 C 530.3088,740.07482 494.12482,700.41099 455.81669,677.94349 432.68732,664.37826 402.77978,656.85187 373.24265,654.71568 Z M 579.9199,866.44036 c -321.13644,151.09404 -160.56821,75.54705 0,0 z M 295.37594,748.78178 c 0.46804,0.0244 0.93342,0.0648 1.40103,0.10507 2.49398,0.215 4.9654,0.65227 7.41692,1.37963 10.93827,3.24529 20.51382,9.94335 28.29395,18.95581 9.22833,10.69009 14.92819,24.68827 18.50402,38.97127 1.03089,4.11761 1.25029,9.36132 0.0479,14.00136 -5.52519,2.14429 -10.10079,2.96255 -16.00557,3.59368 -9.51616,1.01712 -19.37002,1.2988 -29.26185,-0.4379 -10.02127,-1.75942 -19.39082,-7.10162 -27.82857,-13.44988 -11.00573,-8.28028 -24.97443,-26.20913 -24.58676,-42.28189 2.27801,-7.14166 11.46205,-14.79493 21.44727,-17.84208 6.49478,-1.98197 13.55117,-3.3621 20.57171,-2.99507 z m 196.05556,20.55839 c 7.12763,0.64412 14.37692,4.38556 18.23093,9.6744 5.00774,6.8721 3.6412,14.26052 0.92354,22.57547 -2.9429,9.00435 -10.42201,16.06181 -17.79772,21.39107 -9.54561,6.89712 -20.83635,8.73247 -31.85783,8.31502 -3.37599,-0.12784 -5.96456,-0.43768 -9.06995,-1.54019 -0.34353,-13.7064 0.72498,-24.94543 6.4487,-36.45953 6.48844,-13.05245 13.58907,-22.0485 28.23141,-23.88389 1.58907,-0.19919 3.24608,-0.22099 4.89092,-0.0723 z m -234.96457,73.4834 c 8.51343,0.66524 16.67887,1.90933 23.82918,3.34235 34.79762,6.97397 65.68384,20.85977 90.24443,43.6744 l -1.17588,1.28415 c -24.28342,-22.55716 -54.86191,-36.3211 -89.41652,-43.24635 -18.90267,-3.78839 -45.02916,-6.15829 -65.3488,-0.1434 l -0.49719,-1.66579 c 13.01778,-3.85344 28.17574,-4.35415 42.36478,-3.24536 z m 163.94702,13.42959 c 5.89842,0.47864 11.5603,1.9278 16.17665,5.34845 2.39366,1.77365 4.96916,3.9315 5.82211,6.78594 1.75636,5.87816 -0.60345,12.44574 -3.67038,16.97951 -4.13176,6.10783 -14.2621,14.34245 -20.27322,16.33823 0.84822,8.43485 0.086,17.1424 -1.41774,24.7603 -0.67094,3.39874 -1.2827,6.23821 -2.48454,9.21872 0.56028,0.0522 1.12393,0.11042 1.68534,0.21788 l 0.0182,10e-4 c 7.25606,1.49747 19.34689,8.11227 27.70712,12.87355 3.05182,1.73804 6.616,4.5421 10.16581,6.69089 3.54982,2.1487 7.01843,3.5426 9.64904,2.8461 5.36638,-1.4208 10.44804,-4.93814 14.73596,-8.13522 5.83435,-4.35007 11.3659,-9.40645 14.71499,-15.41932 1.26123,-2.26437 1.50374,-4.36432 1.53975,-7.11213 l 1.75494,0.0218 c -0.0373,2.84731 -0.32409,5.34761 -1.76628,7.93684 -3.5424,6.35996 -9.26561,11.56483 -15.19671,15.98702 -4.32515,3.22481 -9.55596,6.86911 -15.34141,8.40091 -3.50093,0.9269 -7.31068,-0.7928 -10.99004,-3.0199 -3.67935,-2.2272 -7.27851,-5.04557 -10.13077,-6.66996 -8.32219,-4.73959 -20.57643,-11.29918 -27.19174,-12.67022 -0.005,-6.8e-4 -0.0135,-4.2e-4 -0.0182,-10e-4 -5.68738,-1.08153 -11.66652,1.18341 -17.45574,3.41173 -15.67683,6.03407 -32.75869,13.22195 -50.77873,16.13645 -6.8343,1.1053 -15.46994,-1.8927 -23.57899,-6.43426 -8.10907,-4.54153 -15.66385,-10.65507 -20.1465,-16.09418 -2.52539,-3.06418 -4.09424,-7.01491 -4.62579,-11.27066 l 1.7363,-0.21745 c 0.49541,3.96643 1.95539,7.59551 4.2364,10.36317 4.2757,5.188 11.71904,11.2511 19.64611,15.69069 7.92708,4.4396 16.36917,7.22539 22.45908,6.24049 17.7432,-2.86975 34.71121,-10.00497 50.42483,-16.0532 4.71198,-1.81369 9.7544,-3.80037 14.88836,-3.82385 1.28868,-3.02193 1.90055,-5.84584 2.61145,-9.44706 1.48205,-7.50807 2.24462,-16.10335 1.40455,-24.34046 -5.72853,-8.51879 -12.41488,-13.37395 -19.52013,-19.3225 -4.71624,-3.94843 -13.65113,-8.71377 -11.51459,-15.30045 2.95181,-9.09961 13.09155,-10.23886 20.91647,-10.76406 4.4907,-0.3014 9.22041,-0.52607 13.80803,-0.15382 z m -150.74426,18.88627 c 2.37629,0.15757 4.7363,0.33784 7.09622,0.53218 28.31893,2.332 55.48325,7.52206 80.235,20.01496 l -0.79468,1.56891 c -32.62076,-16.46461 -69.63498,-20.16004 -108.14676,-21.37629 -17.44322,-0.55088 -38.91797,1.35513 -56.87833,7.68286 L 190.6098,881.909 c 18.26784,-6.43605 39.87465,-8.33969 57.48969,-7.78339 7.23524,0.22853 14.44133,0.54111 21.5702,1.01382 z m 35.23053,23.81259 c 1.5232,0.10834 3.03418,0.22558 4.54749,0.35931 12.10661,1.06786 23.86506,2.97594 34.85969,6.31043 l -0.50901,1.66352 c -21.67945,-6.57503 -46.57158,-7.53966 -71.29235,-7.50567 -27.02464,0.0371 -57.71576,2.43922 -85.95639,9.67404 l -0.4217,-1.69671 c 28.44547,-7.28731 59.25494,-9.69634 86.38172,-9.73365 10.83594,-0.0149 21.72823,0.16816 32.39055,0.92871 z"
         style="fill:#000000;stroke:none" />
      <path
         sodipodi:nodetypes="csssssssssssscscsssccsssssssscssc"
         inkscape:connector-curvature="0"
         id="path3785-1"
         d="m 167.59243,808.86585 c 0,0 -5.19393,-2.88258 -7.04633,-5.11762 -12.80373,-15.44859 -19.10263,-36.96135 -23.18735,-55.06098 -6.00372,-26.60284 -7.51195,-53.90325 -9.79571,-79.18796 -1.7146,-18.98341 -3.52049,-37.63656 -4.33564,-55.83254 -0.71441,-15.94701 -3.7642,-32.40627 -5.00384,-46.92279 -0.58431,-6.84249 -1.42799,-20.49078 5.48697,-23.62714 1.86291,-0.84493 4.27892,-1.05846 6.1336,-0.19561 11.45282,5.32819 21.5574,14.48967 31.62968,21.16589 13.09413,8.67921 25.76971,16.76261 38.33918,24.94707 11.74976,7.65072 23.97298,13.85467 35.37286,20.79101 12.28026,7.472 25.24303,13.88617 35.1773,23.39875 9.16893,8.77971 18.28711,17.49 25.49072,27.26148 1.54331,2.0935 4.09091,6.64426 4.09091,6.64426 0,0 -18.72571,15.33346 -29.69542,20.06336 -9.41117,4.0579 -30.00515,6.70963 -30.00515,6.70963 0,0 -0.59273,-1.31743 -0.72257,-2.02098 -0.41058,-2.2248 0.0402,-4.53089 -0.14672,-6.78553 -0.62414,-7.52718 -5.47481,-14.34467 -9.41509,-20.15551 -8.36127,-12.33059 -17.73806,-23.39382 -26.47406,-34.54683 -17.94966,-22.59587 -38.61905,-43.22051 -59.15819,-60.34349 -1.84387,-1.53352 -4.26071,-3.47947 -6.50276,-4.33076 -3.23332,-1.22765 -3.50887,2.49093 -4.16674,5.02283 -2.21678,8.53157 -2.567,17.45577 -2.5913,25.8111 -0.0364,12.50949 0.49136,24.79432 1.84191,36.63314 1.41886,12.43763 2.228,24.48166 3.39568,36.3126 1.61331,16.3461 3.71517,32.41903 7.12804,47.7377 1.30385,5.85232 4.37131,16.54809 4.59622,17.39026 3.79012,14.19159 8.88151,31.45648 17.41225,41.73443 2.92638,3.52574 6.11957,5.92139 10.07783,8.40444 0,0 0.10064,7.17031 -0.58125,10.66452 -0.60406,3.0954 -1.43777,6.25219 -3.0749,8.94778 -1.07185,1.76484 -4.27013,4.48749 -4.27013,4.48749 z"
         style="fill:#000000;stroke:#000000;stroke-width:0.43270159px;stroke-linecap:butt;stroke-linejoin:miter;stroke-opacity:1" />
      <path
         sodipodi:nodetypes="ccccssccsssssscc"
         inkscape:connector-curvature="0"
         id="path3799-6"
         d="m 460.59716,675.46267 c 21.98915,14.04491 46.13728,34.87132 60.35836,54.78913 22.32636,-17.96701 34.79232,-38.14128 48.87287,-60.14643 12.37493,-18.3208 25.26398,-36.96321 35.94829,-53.90412 -7.50419,20.10456 -9.35864,42.26841 -11.84848,61.8304 -3.06569,24.08619 -7.0163,46.4268 -13.64136,68.25193 -5.93925,19.56588 -15.25982,37.00064 -25.37072,52.73059 2.1001,6.16014 4.21353,12.694 6.62267,19.50903 6.33887,-7.82954 10.11109,-17.30352 14.15763,-25.59929 16.34139,-33.50108 20.59223,-69.57652 28.33129,-103.8638 6.73465,-29.837 14.01031,-60.81462 15.05377,-89.9993 0.14465,-4.0471 1.86236,-14.75682 -3.3195,-14.01653 -8.7038,1.24341 -16.64618,6.85708 -23.57816,11.34374 -22.15658,14.34051 -46.41175,24.72278 -68.3386,37.05185 -21.5704,12.12863 -46.44192,21.74292 -61.99849,39.93118 -0.51836,0.62523 -1.24957,2.09162 -1.24957,2.09162 z"
         style="fill:#000000;fill-opacity:1;stroke:#000000;stroke-width:0.43270159px;stroke-linecap:butt;stroke-linejoin:miter;stroke-opacity:1" />
    </g>
  </g>
</svg>
